<mxfile host="app.diagrams.net" modified="2024-05-11T19:29:59.195Z" agent="Mozilla/5.0 (X11; Ubuntu; Linux x86_64; rv:123.0) Gecko/20100101 Firefox/123.0" etag="pcrBg7WenLo4BZKEyl_P" version="24.4.0" type="github">
  <diagram name="Page-1" id="yCriFrnhQ32WkpZ9kwNe">
    <mxGraphModel dx="1364" dy="795" grid="1" gridSize="10" guides="1" tooltips="1" connect="1" arrows="1" fold="1" page="1" pageScale="1" pageWidth="850" pageHeight="1100" math="0" shadow="0">
      <root>
        <mxCell id="0" />
        <mxCell id="1" parent="0" />
        <mxCell id="vM9bWIVnvWEKdq6D2fwi-1" value="" style="rounded=1;whiteSpace=wrap;html=1;fillColor=#dae8fc;strokeColor=#6c8ebf;" parent="1" vertex="1">
          <mxGeometry x="230" y="150" width="250" height="400" as="geometry" />
        </mxCell>
        <mxCell id="vM9bWIVnvWEKdq6D2fwi-2" value="&lt;b&gt;&lt;font style=&quot;font-size: 14px;&quot;&gt;Kubernetes (azure)&lt;/font&gt;&lt;/b&gt;" style="text;html=1;align=center;verticalAlign=middle;whiteSpace=wrap;rounded=0;" parent="1" vertex="1">
          <mxGeometry x="250" y="150" width="130" height="30" as="geometry" />
        </mxCell>
        <mxCell id="vM9bWIVnvWEKdq6D2fwi-3" value="frontend" style="shape=umlActor;verticalLabelPosition=bottom;verticalAlign=top;html=1;outlineConnect=0;" parent="1" vertex="1">
          <mxGeometry x="50" y="315" width="30" height="60" as="geometry" />
        </mxCell>
        <mxCell id="vM9bWIVnvWEKdq6D2fwi-4" value="&lt;div&gt;nginx&lt;/div&gt;&lt;div&gt;(webserver)&lt;/div&gt;" style="rounded=1;whiteSpace=wrap;html=1;" parent="1" vertex="1">
          <mxGeometry x="330" y="252.5" width="130" height="70" as="geometry" />
        </mxCell>
        <mxCell id="vM9bWIVnvWEKdq6D2fwi-5" value="&lt;div&gt;poedata&lt;/div&gt;&lt;div&gt;(python flask)&lt;br&gt;&lt;/div&gt;" style="rounded=1;whiteSpace=wrap;html=1;" parent="1" vertex="1">
          <mxGeometry x="330" y="377.5" width="130" height="70" as="geometry" />
        </mxCell>
        <mxCell id="vM9bWIVnvWEKdq6D2fwi-6" value="" style="endArrow=classic;html=1;rounded=0;entryX=0;entryY=0.5;entryDx=0;entryDy=0;" parent="1" target="BPy8xZhrbLqSGhOo5FLC-1" edge="1">
          <mxGeometry width="50" height="50" relative="1" as="geometry">
            <mxPoint x="80" y="350" as="sourcePoint" />
            <mxPoint x="160" y="470" as="targetPoint" />
          </mxGeometry>
        </mxCell>
        <mxCell id="vM9bWIVnvWEKdq6D2fwi-9" value="" style="rounded=1;whiteSpace=wrap;html=1;fillColor=#fff2cc;strokeColor=#d6b656;" parent="1" vertex="1">
          <mxGeometry x="550" y="337.5" width="210" height="150" as="geometry" />
        </mxCell>
        <mxCell id="vM9bWIVnvWEKdq6D2fwi-11" value="&lt;font style=&quot;font-size: 14px;&quot;&gt;&lt;b&gt;path of exile external api&lt;br&gt;&lt;/b&gt;&lt;/font&gt;" style="text;html=1;align=center;verticalAlign=middle;whiteSpace=wrap;rounded=0;" parent="1" vertex="1">
          <mxGeometry x="570" y="340" width="170" height="30" as="geometry" />
        </mxCell>
        <mxCell id="vM9bWIVnvWEKdq6D2fwi-12" value="" style="endArrow=classic;html=1;rounded=0;entryX=0;entryY=0.5;entryDx=0;entryDy=0;exitX=1;exitY=0.5;exitDx=0;exitDy=0;" parent="1" source="vM9bWIVnvWEKdq6D2fwi-5" target="vM9bWIVnvWEKdq6D2fwi-9" edge="1">
          <mxGeometry width="50" height="50" relative="1" as="geometry">
            <mxPoint x="140" y="300" as="sourcePoint" />
            <mxPoint x="310" y="300" as="targetPoint" />
          </mxGeometry>
        </mxCell>
        <mxCell id="BPy8xZhrbLqSGhOo5FLC-1" value="&lt;div&gt;nginx&lt;/div&gt;&lt;div&gt;(ingress controller)&lt;/div&gt;" style="rounded=1;whiteSpace=wrap;html=1;" vertex="1" parent="1">
          <mxGeometry x="160" y="315" width="130" height="70" as="geometry" />
        </mxCell>
        <mxCell id="BPy8xZhrbLqSGhOo5FLC-2" value="" style="endArrow=classic;html=1;rounded=0;entryX=0;entryY=0.5;entryDx=0;entryDy=0;exitX=1;exitY=0.5;exitDx=0;exitDy=0;" edge="1" parent="1" source="BPy8xZhrbLqSGhOo5FLC-1" target="vM9bWIVnvWEKdq6D2fwi-5">
          <mxGeometry width="50" height="50" relative="1" as="geometry">
            <mxPoint x="90" y="360" as="sourcePoint" />
            <mxPoint x="170" y="360" as="targetPoint" />
            <Array as="points">
              <mxPoint x="310" y="350" />
              <mxPoint x="310" y="413" />
            </Array>
          </mxGeometry>
        </mxCell>
        <mxCell id="BPy8xZhrbLqSGhOo5FLC-3" value="" style="endArrow=classic;html=1;rounded=0;entryX=0;entryY=0.5;entryDx=0;entryDy=0;exitX=1;exitY=0.5;exitDx=0;exitDy=0;" edge="1" parent="1" source="BPy8xZhrbLqSGhOo5FLC-1" target="vM9bWIVnvWEKdq6D2fwi-4">
          <mxGeometry width="50" height="50" relative="1" as="geometry">
            <mxPoint x="300" y="360" as="sourcePoint" />
            <mxPoint x="340" y="423" as="targetPoint" />
            <Array as="points">
              <mxPoint x="310" y="350" />
              <mxPoint x="310" y="288" />
            </Array>
          </mxGeometry>
        </mxCell>
      </root>
    </mxGraphModel>
  </diagram>
</mxfile>
